<?xml version="1.0" encoding="UTF-8"?>
<svg width="73.078mm" height="16.882mm" version="1.1" viewBox="0 0 73.078 16.882" xmlns="http://www.w3.org/2000/svg">
<g transform="translate(-59.545 -78.651)" stroke-width=".26458">
<path d="m63.478 87.069-3.5278-1.4905q-0.4057-0.16757-0.4057-0.58208 0-0.20285 0.09701-0.33514 0.10583-0.14111 0.30868-0.22931l3.5278-1.4993q0.14993-0.06174 0.26458-0.02646 0.12347 0.03528 0.19403 0.13229 0.07056 0.09701 0.07937 0.22049 0.0088 0.12347-0.05292 0.23812-0.05292 0.10583-0.20285 0.16757l-3.8453 1.614v-0.5468l3.8453 1.614q0.14993 0.06174 0.20285 0.17639 0.06174 0.10583 0.05292 0.22931-0.0088 0.11465-0.07937 0.21167-0.07056 0.09701-0.19403 0.13229-0.11465 0.03528-0.26458-0.02646z" fill="#e4b028" aria-label="&lt;"/>
<path d="m71.563 87.049q-0.14993 0.06174-0.2734 0.02646-0.11465-0.03528-0.18521-0.13229-0.07055-0.09701-0.07937-0.21167-0.0088-0.12347 0.05292-0.22931 0.06174-0.11465 0.20285-0.17639l3.8453-1.614v0.5468l-3.8453-1.614q-0.14111-0.06174-0.20285-0.16757-0.06174-0.11465-0.05292-0.23812 0.0088-0.12347 0.07937-0.22049 0.07056-0.09701 0.18521-0.13229 0.12347-0.03528 0.2734 0.02646l3.5278 1.4993q0.40569 0.16757 0.40569 0.56444 0 0.20285-0.10583 0.35278-0.09701 0.14111-0.29986 0.2293z" fill="#e4b028" aria-label="&gt;"/>
<path d="m65.431 87.56q-0.21872 0-0.33867-0.11994-0.11289-0.127-0.11289-0.34572v-4.1557q0-0.22578 0.11289-0.34572 0.11994-0.11994 0.33867-0.11994 0.21872 0 0.33161 0.11994 0.11994 0.11994 0.11994 0.34572v4.1557q0 0.21872-0.11289 0.34572-0.11289 0.11994-0.33867 0.11994zm3.1891 0q-0.21872 0-0.33867-0.11994-0.11289-0.127-0.11289-0.34572v-3.81h-1.3758q-0.18344 0-0.28928-0.09878-0.09878-0.10583-0.09878-0.28222 0-0.18344 0.09878-0.27517 0.10583-0.09878 0.28928-0.09878h3.6548q0.18344 0 0.28222 0.09878 0.10583 0.09172 0.10583 0.27517 0 0.17639-0.10583 0.28222-0.09878 0.09878-0.28222 0.09878h-1.3758v3.81q0 0.21872-0.11289 0.34572-0.11289 0.11994-0.33867 0.11994z" fill="#0b1849" aria-label="IT"/>
<path d="m79.803 91.364q-0.762 0-1.4817-0.14111-0.70556-0.14111-1.2841-0.43744-0.26811-0.14111-0.36689-0.33867-0.08467-0.19756-0.05644-0.40922 0.04233-0.19756 0.16933-0.35278 0.14111-0.15522 0.33867-0.21167 0.19756-0.05645 0.40922 0.05644 0.62089 0.31044 1.1712 0.39511 0.56444 0.09878 0.95955 0.09878 0.94544 0 1.4111-0.46567 0.47978-0.45156 0.47978-1.3547v-1.27h0.127q-0.21167 0.71967-0.889 1.1571-0.66322 0.42333-1.5099 0.42333-0.93133 0-1.6228-0.42333-0.69144-0.43744-1.0724-1.2136-0.381-0.77611-0.381-1.8062 0-0.77611 0.21167-1.397 0.22578-0.635 0.62089-1.0866 0.40922-0.45156 0.97367-0.69144 0.57856-0.254 1.27-0.254 0.87489 0 1.524 0.43744 0.66322 0.42333 0.86078 1.1289l-0.14111 0.35278v-1.0019q0-0.43744 0.22578-0.66322 0.23989-0.22578 0.64911-0.22578 0.42333 0 0.64911 0.22578 0.22578 0.22578 0.22578 0.66322v5.4328q0 1.6792-0.889 2.5259-0.889 0.84667-2.5823 0.84667zm-0.04233-4.191q0.55033 0 0.94544-0.254 0.39511-0.254 0.60678-0.71967 0.22578-0.47978 0.22578-1.1289 0-0.97366-0.47978-1.524-0.47978-0.56444-1.2982-0.56444-0.55033 0-0.94544 0.254-0.39511 0.254-0.62089 0.71967-0.21167 0.46567-0.21167 1.1148 0 0.97367 0.47978 1.5381 0.47978 0.56444 1.2982 0.56444zm8.4949 1.651q-1.0724 0-1.8627-0.43744-0.79022-0.43744-1.2277-1.2418-0.43744-0.81844-0.43744-1.9191 0-0.83256 0.23989-1.4817 0.254-0.66322 0.71967-1.1289 0.46567-0.47978 1.1148-0.71967 0.64911-0.254 1.4534-0.254 1.0724 0 1.8627 0.43744 0.79022 0.43744 1.2277 1.2418 0.43744 0.80433 0.43744 1.905 0 0.83255-0.254 1.4958-0.23989 0.66322-0.70556 1.143-0.46567 0.46567-1.1148 0.71967-0.64911 0.23989-1.4534 0.23989zm0-1.3406q0.52211 0 0.91722-0.254t0.60678-0.74789q0.22578-0.508 0.22578-1.2559 0-1.1289-0.47978-1.6792-0.47978-0.56444-1.27-0.56444-0.52211 0-0.91722 0.254-0.39511 0.23989-0.62089 0.74789-0.21167 0.49389-0.21167 1.2418 0 1.1148 0.47978 1.6933 0.47978 0.56444 1.27 0.56444z" fill="#0b1849" aria-label="go"/>
<path d="m118.93 87.142-3.5278-1.4905q-0.40569-0.16757-0.40569-0.58208 0-0.20285 0.097-0.33514 0.10584-0.14111 0.30868-0.2293l3.5278-1.4993q0.14993-0.06174 0.26458-0.02646 0.12348 0.03528 0.19403 0.13229 0.0706 0.09701 0.0794 0.22049 9e-3 0.12347-0.0529 0.23812-0.0529 0.10583-0.20285 0.16757l-3.8453 1.614v-0.5468l3.8453 1.614q0.14993 0.06174 0.20285 0.17639 0.0617 0.10583 0.0529 0.22931-9e-3 0.11465-0.0794 0.21167-0.0706 0.09701-0.19403 0.13229-0.11465 0.03528-0.26458-0.02646z" fill="#e4b028" aria-label="&lt;"/>
<path d="m120 87.615q-0.0423 0.13406-0.13406 0.1905-0.0917 0.0635-0.20461 0.0635-0.10583 0-0.19756-0.05644-0.0917-0.05644-0.127-0.16228-0.0423-0.09878 0-0.23989l1.6298-5.0588q0.0423-0.13406 0.13405-0.19756 0.0988-0.0635 0.20461-0.05644 0.10584 0 0.19756 0.05644 0.0917 0.05644 0.127 0.15522 0.0423 0.09878 0 0.23989zm2.5823-0.14817q-0.21872 0-0.33867-0.11994-0.11289-0.127-0.11289-0.34572v-4.1557q0-0.22578 0.11289-0.34572 0.11995-0.11994 0.33867-0.11994t0.33161 0.11994q0.11994 0.11994 0.11994 0.34572v4.1557q0 0.21872-0.11288 0.34572-0.11289 0.11994-0.33867 0.11994zm3.1891 0q-0.21872 0-0.33867-0.11994-0.11289-0.127-0.11289-0.34572v-3.81h-1.3758q-0.18345 0-0.28928-0.09878-0.0988-0.10583-0.0988-0.28222 0-0.18344 0.0988-0.27517 0.10583-0.09878 0.28928-0.09878h3.6548q0.18344 0 0.28222 0.09878 0.10583 0.09172 0.10583 0.27517 0 0.17639-0.10583 0.28222-0.0988 0.09878-0.28222 0.09878h-1.3758v3.81q0 0.21872-0.11288 0.34572-0.11289 0.11994-0.33867 0.11994z" fill="#0b1849" aria-label="/IT"/>
<path d="m128.69 87.13q-0.14993 0.06174-0.2734 0.02646-0.11465-0.03528-0.18521-0.13229-0.0705-0.09701-0.0794-0.21167-9e-3 -0.12347 0.0529-0.22931 0.0617-0.11465 0.20285-0.17639l3.8453-1.614v0.5468l-3.8453-1.614q-0.14111-0.06174-0.20285-0.16757-0.0617-0.11465-0.0529-0.23812 9e-3 -0.12347 0.0794-0.22049 0.0706-0.09701 0.18521-0.13229 0.12347-0.03528 0.2734 0.02646l3.5278 1.4993q0.40569 0.16757 0.40569 0.56444 0 0.20285-0.10583 0.35278-0.097 0.14111-0.29986 0.2293z" fill="#e4b028" aria-label="&gt;"/>
<path d="m97.014 91.369q-0.47625 0-0.79375-0.21167-0.29986-0.22931-0.49389-0.67028l-4.6038-10.336q-0.19403-0.44097-0.10583-0.77611 0.08819-0.33514 0.37042-0.52917 0.28222-0.19403 0.67028-0.19403 0.51153 0 0.75847 0.22931 0.26458 0.21167 0.44097 0.65264l4.1804 9.6838h-0.75847l4.1628-9.7014q0.19403-0.42333 0.45861-0.635 0.26458-0.22931 0.74083-0.22931 0.38806 0 0.635 0.19403 0.26459 0.19403 0.33514 0.52917 0.0706 0.33514-0.12347 0.77611l-4.6038 10.336q-0.19403 0.44097-0.49389 0.67028-0.28222 0.21167-0.77611 0.21167z" fill="#e4b028" aria-label="V"/>
<path d="m105.49 88.938q-1.0724 0-1.8627-0.43744t-1.2277-1.2418q-0.43745-0.81844-0.43745-1.9191 0-0.83256 0.23989-1.4817 0.254-0.66322 0.71967-1.1289 0.46566-0.47978 1.1148-0.71967 0.64911-0.254 1.4534-0.254 1.0724 0 1.8627 0.43744t1.2277 1.2418q0.43744 0.80433 0.43744 1.905 0 0.83256-0.254 1.4958-0.23989 0.66322-0.70555 1.143-0.46567 0.46567-1.1148 0.71967-0.64911 0.23989-1.4534 0.23989zm0-1.3406q0.52211 0 0.91722-0.254 0.39511-0.254 0.60678-0.74789 0.22577-0.508 0.22577-1.2559 0-1.1289-0.47977-1.6792-0.47978-0.56444-1.27-0.56444-0.52211 0-0.91722 0.254-0.39512 0.23989-0.62089 0.74789-0.21167 0.49389-0.21167 1.2418 0 1.1148 0.47978 1.6933 0.47978 0.56444 1.27 0.56444zm5.8843 1.3123q-0.43745 0-0.67733-0.22578-0.22578-0.23989-0.22578-0.67733v-5.334q0-0.43744 0.22578-0.66322 0.22577-0.22578 0.635-0.22578 0.40922 0 0.63499 0.22578 0.22578 0.22578 0.22578 0.66322v0.889h-0.14111q0.19756-0.84667 0.77611-1.2841 0.57856-0.43744 1.5381-0.52211 0.29633-0.02822 0.46567 0.15522 0.18344 0.16933 0.21166 0.53622 0.0282 0.35278-0.16933 0.57856-0.18344 0.21167-0.56444 0.254l-0.31045 0.02822q-0.86077 0.08467-1.2982 0.53622-0.43744 0.43744-0.43744 1.2418v2.921q0 0.43744-0.22578 0.67733-0.22578 0.22578-0.66322 0.22578z" fill="#0b1849" aria-label="or"/>
<path d="m86.328 95.486q-0.11642 0-0.17992-0.05821-0.05821-0.0635-0.05821-0.17992v-3.2544q0-0.11642 0.05821-0.17462 0.0635-0.0635 0.17992-0.0635h1.9685q0.08996 0 0.13758 0.04762 0.04763 0.04763 0.04763 0.13229 0 0.08996-0.04763 0.13758-0.04762 0.04763-0.13758 0.04763h-1.7833v1.2912h1.6722q0.08996 0 0.13758 0.04762 0.04763 0.04233 0.04763 0.13229 0 0.08996-0.04763 0.13758-0.04762 0.04762-0.13758 0.04762h-1.6722v1.3441h1.7833q0.08996 0 0.13758 0.04762 0.04763 0.04762 0.04763 0.13229 0 0.08996-0.04763 0.13758-0.04762 0.04762-0.13758 0.04762zm3.0533 0.03704q-0.10054 0-0.15346-0.05292-0.05292-0.05821-0.05292-0.16404v-3.3655q0-0.10583 0.05292-0.16404 0.05292-0.05821 0.13758-0.05821 0.08467 0 0.12171 0.03175 0.04233 0.02646 0.09525 0.10054l2.3072 3.0745h-0.127v-2.9951q0-0.10054 0.05292-0.15346 0.05292-0.05821 0.15346-0.05821 0.09525 0 0.14288 0.05821 0.05292 0.05292 0.05292 0.15346v3.3814q0 0.10054-0.04763 0.15875-0.04233 0.05292-0.127 0.05292-0.07937 0-0.127-0.03175t-0.10054-0.10054l-2.3019-3.0745h0.12171v2.9898q0 0.10583-0.05292 0.16404-0.05292 0.05292-0.14817 0.05292zm5.4134 0.01058q-0.59796 0-1.0107-0.22754-0.40746-0.22754-0.61913-0.65617-0.21167-0.42862-0.21167-1.0266 0-0.4445 0.11642-0.79904 0.12171-0.35454 0.34925-0.59796 0.23283-0.24871 0.56092-0.381 0.33338-0.13758 0.75142-0.13758 0.33338 0 0.64558 0.09525 0.31221 0.08996 0.55563 0.29104 0.0635 0.04762 0.07937 0.10583 0.01587 0.05821-0.0053 0.11642-0.01587 0.05821-0.05821 0.10054-0.03704 0.03704-0.10054 0.04233-0.05821 0.0053-0.12171-0.03704-0.21696-0.16933-0.46038-0.24342-0.24342-0.07937-0.53975-0.07937-0.42333 0-0.71967 0.17992-0.29104 0.17992-0.4445 0.51858-0.14817 0.33867-0.14817 0.8255 0 0.74083 0.34396 1.1324 0.34925 0.39158 1.0478 0.39158 0.254 0 0.49742-0.04762 0.24342-0.05292 0.46038-0.14288l-0.09525 0.24871v-1.3176h-0.75671q-0.09525 0-0.14288-0.04762-0.04762-0.04762-0.04762-0.127 0-0.08467 0.04762-0.127t0.14288-0.04233h0.94721q0.08996 0 0.13758 0.04763 0.04762 0.04763 0.04762 0.13758v1.3811q0 0.07937-0.02646 0.13229-0.02646 0.05292-0.08996 0.07937-0.22225 0.08996-0.53446 0.15346-0.30692 0.05821-0.59796 0.05821zm2.3601-0.04762q-0.10583 0-0.16404-0.05821-0.05821-0.0635-0.05821-0.16933v-3.302q0-0.11113 0.05292-0.16933 0.05821-0.05821 0.16404-0.05821 0.10583 0 0.15875 0.05821 0.05821 0.05821 0.05821 0.16933v3.1485h1.7357q0.09525 0 0.14817 0.05292 0.05292 0.04762 0.05292 0.13758 0 0.08996-0.05292 0.14288-0.05292 0.04762-0.14817 0.04762zm2.8681 0.03704q-0.10583 0-0.16404-0.05821-0.0529-0.0635-0.0529-0.16933v-3.3496q0-0.11112 0.0529-0.16933 0.0582-0.05821 0.16404-0.05821 0.10583 0 0.15875 0.05821 0.0582 0.05821 0.0582 0.16933v3.3496q0 0.10583-0.0529 0.16933-0.0529 0.05821-0.16404 0.05821zm2.3495 0.01058q-0.24871 0-0.48683-0.04233-0.23813-0.04233-0.4445-0.12171-0.20109-0.07937-0.36513-0.20108-0.0635-0.04762-0.09-0.10583-0.0212-0.0635-0.0106-0.12171 0.0159-0.0635 0.0529-0.10583 0.0423-0.04233 0.10054-0.04762 0.0582-0.0053 0.127 0.03704 0.23812 0.16933 0.508 0.24871 0.26987 0.07408 0.60854 0.07408 0.47625 0 0.70379-0.17462 0.23284-0.17992 0.23284-0.47096 0-0.23812-0.16934-0.37042-0.16404-0.13758-0.55562-0.21696l-0.55034-0.11112q-0.49741-0.10583-0.74612-0.34396-0.24342-0.24342-0.24342-0.64558 0-0.24871 0.10054-0.44979 0.10055-0.20638 0.28046-0.34925 0.17992-0.14817 0.42863-0.22754 0.24871-0.07937 0.55033-0.07937 0.33338 0 0.61913 0.09525 0.29104 0.08996 0.52387 0.27517 0.0582 0.04762 0.0794 0.11112 0.0212 0.05821 5e-3 0.11642-0.0159 0.05292-0.0582 0.08996-0.037 0.03704-0.10054 0.04233-0.0582 0.0053-0.13229-0.04233-0.21167-0.15875-0.43921-0.22754-0.22754-0.07408-0.50271-0.07408-0.28046 0-0.48683 0.08467-0.20109 0.08467-0.3175 0.24871-0.11113 0.15875-0.11113 0.37042 0 0.254 0.15346 0.40217 0.15875 0.14817 0.51329 0.21696l0.55034 0.11642q0.53445 0.11112 0.78845 0.33867 0.2593 0.22225 0.2593 0.60854 0 0.23283-0.0953 0.42862-0.0952 0.19579-0.27517 0.33867-0.17992 0.13758-0.43392 0.21167-0.254 0.07408-0.5715 0.07408zm2.2648-0.01058q-0.10584 0-0.16405-0.05821-0.0529-0.0635-0.0529-0.16933v-3.3496q0-0.11112 0.0529-0.16933 0.0582-0.05821 0.16405-0.05821 0.10583 0 0.15875 0.05821 0.0582 0.05821 0.0582 0.16933v1.4605h2.2384v-1.4605q0-0.11112 0.0529-0.16933 0.0582-0.05821 0.16404-0.05821 0.10583 0 0.15875 0.05821 0.0582 0.05821 0.0582 0.16933v3.3496q0 0.10583-0.0582 0.16933-0.0529 0.05821-0.15875 0.05821-0.10584 0-0.16404-0.05821-0.0529-0.0635-0.0529-0.16933v-1.5134h-2.2384v1.5134q0 0.10583-0.0529 0.16933-0.0529 0.05821-0.16404 0.05821z" fill="#0b1849" aria-label="ENGLISH"/>
</g>
</svg>
